  0
SECTION
  2
HEADER
  9
$ACADVER
  1
AC1014
  9
$HANDSEED
  5
FFFF
  9
$MEASUREMENT
 70
     1
  0
ENDSEC
  0
SECTION
  2
TABLES
  0
TABLE
  2
VPORT
  5
8
330
0
100
AcDbSymbolTable
 70
     4
  0
VPORT
  5
2E
330
8
100
AcDbSymbolTableRecord
100
AcDbViewportTableRecord
  2
*ACTIVE
 70
     0
 10
0.0
 20
0.0
 11
1.0
 21
1.0
 12
210.0
 22
148.5
 13
0.0
 23
0.0
 14
10.0
 24
10.0
 15
10.0
 25
10.0
 16
0.0
 26
0.0
 36
1.0
 17
0.0
 27
0.0
 37
0.0
 40
341.0
 41
1.24
 42
50.0
 43
0.0
 44
0.0
 50
0.0
 51
0.0
 71
     0
 72
   100
 73
     1
 74
     3
 75
     0
 76
     0
 77
     0
 78
     0
  0
ENDTAB
  0
TABLE
  2
LTYPE
  5
5
330
0
100
AcDbSymbolTable
 70
     1
  0
LTYPE
  5
14
330
5
100
AcDbSymbolTableRecord
100
AcDbLinetypeTableRecord
  2
BYBLOCK
 70
     0
  3

 72
    65
 73
     0
 40
0.0
  0
LTYPE
  5
15
330
5
100
AcDbSymbolTableRecord
100
AcDbLinetypeTableRecord
  2
BYLAYER
 70
     0
  3

 72
    65
 73
     0
 40
0.0
  0
LTYPE
  5
16
330
5
100
AcDbSymbolTableRecord
100
AcDbLinetypeTableRecord
  2
CONTINUOUS
 70
     0
  3
Solid line
 72
    65
 73
     0
 40
0.0
  0
ENDTAB
  0
TABLE
  2
LAYER
  5
2
100
AcDbSymbolTable
 70
2
  0
LAYER
  5
50
100
AcDbSymbolTableRecord
100
AcDbLayerTableRecord
  2
0
 70
0
  6
CONTINUOUS
  0
LAYER
  5
51
100
AcDbSymbolTableRecord
100
AcDbLayerTableRecord
  2
granada_de_fondo
 70
0
  6
CONTINUOUS
  0
ENDTAB
  0
TABLE
  2
STYLE
  5
3
330
0
100
AcDbSymbolTable
 70
     1
  0
STYLE
  5
11
330
3
100
AcDbSymbolTableRecord
100
AcDbTextStyleTableRecord
  2
STANDARD
 70
     0
 40
0.0
 41
1.0
 50
0.0
 71
     0
 42
2.5
  3
txt
  4

  0
ENDTAB
  0
TABLE
  2
VIEW
  5
6
330
0
100
AcDbSymbolTable
 70
     0
  0
ENDTAB
  0
TABLE
  2
UCS
  5
7
330
0
100
AcDbSymbolTable
 70
     0
  0
ENDTAB
  0
TABLE
  2
APPID
  5
9
330
0
100
AcDbSymbolTable
 70
     2
  0
APPID
  5
12
330
9
100
AcDbSymbolTableRecord
100
AcDbRegAppTableRecord
  2
ACAD
 70
     0
  0
ENDTAB
  0
TABLE
  2
DIMSTYLE
  5
A
330
0
100
AcDbSymbolTable
 70
     1
  0
DIMSTYLE
105
27
330
A
100
AcDbSymbolTableRecord
100
AcDbDimStyleTableRecord
  2
ISO-25
 70
     0
  3

  4

  5

  6

  7

 40
1.0
 41
2.5
 42
0.625
 43
3.75
 44
1.25
 45
0.0
 46
0.0
 47
0.0
 48
0.0
140
2.5
141
2.5
142
0.0
143
0.03937007874016
144
1.0
145
0.0
146
1.0
147
0.625
 71
     0
 72
     0
 73
     0
 74
     0
 75
     0
 76
     0
 77
     1
 78
     8
170
     0
171
     3
172
     1
173
     0
174
     0
175
     0
176
     0
177
     0
178
     0
270
     2
271
     2
272
     2
273
     2
274
     3
340
11
275
     0
280
     0
281
     0
282
     0
283
     0
284
     8
285
     0
286
     0
287
     3
288
     0
  0
ENDTAB
  0
TABLE
  2
BLOCK_RECORD
  5
1
330
0
100
AcDbSymbolTable
 70
     1
  0
BLOCK_RECORD
  5
1F
330
1
100
AcDbSymbolTableRecord
100
AcDbBlockTableRecord
  2
*MODEL_SPACE
  0
BLOCK_RECORD
  5
1B
330
1
100
AcDbSymbolTableRecord
100
AcDbBlockTableRecord
  2
*PAPER_SPACE
  0
ENDTAB
  0
ENDSEC
  0
SECTION
  2
BLOCKS
  0
BLOCK
  5
20
330
1F
100
AcDbEntity
  8
0
100
AcDbBlockBegin
  2
*MODEL_SPACE
 70
     0
 10
0.0
 20
0.0
 30
0.0
  3
*MODEL_SPACE
  1

  0
ENDBLK
  5
21
330
1F
100
AcDbEntity
  8
0
100
AcDbBlockEnd
  0
BLOCK
  5
1C
330
1B
100
AcDbEntity
 67
     1
  8
0
100
AcDbBlockBegin
  2
*PAPER_SPACE
  1

  0
ENDBLK
  5
1D
330
1B
100
AcDbEntity
 67
     1
  8
0
100
AcDbBlockEnd
  0
ENDSEC
  0
SECTION
  2
ENTITIES
  0
LWPOLYLINE
  5
100
100
AcDbEntity
  8
granada_de_fondo
 62
7
100
AcDbPolyline
 90
86
 70
0
 10
41.330196
 20
86.918766
 30
0.0
 10
40.604034
 20
86.703044
 30
0.0
 10
40.082399
 20
86.153732
 30
0.0
 10
35.251132
 20
77.269752
 30
0.0
 10
26.873744
 20
83.690443
 30
0.0
 10
26.129720
 20
83.987835
 30
0.0
 10
25.385476
 20
83.866061
 30
0.0
 10
24.796923
 20
83.394533
 30
0.0
 10
24.519973
 20
82.642665
 30
0.0
 10
23.702924
 20
72.356464
 30
0.0
 10
21.666957
 20
71.105827
 30
0.0
 10
19.733492
 20
69.733270
 30
0.0
 10
17.906490
 20
68.245282
 30
0.0
 10
16.189907
 20
66.648415
 30
0.0
 10
14.587702
 20
64.949180
 30
0.0
 10
13.103835
 20
63.154103
 30
0.0
 10
11.742261
 20
61.269708
 30
0.0
 10
10.506940
 20
59.302520
 30
0.0
 10
9.401829
 20
57.259053
 30
0.0
 10
8.430888
 20
55.145844
 30
0.0
 10
7.598073
 20
52.969411
 30
0.0
 10
6.907345
 20
50.736286
 30
0.0
 10
6.362659
 20
48.452981
 30
0.0
 10
5.967975
 20
46.126022
 30
0.0
 10
5.727250
 20
43.761937
 30
0.0
 10
5.644444
 20
41.367256
 30
0.0
 10
5.644444
 20
41.366409
 30
0.0
 10
5.829082
 20
37.716889
 30
0.0
 10
6.370981
 20
34.172158
 30
0.0
 10
7.252106
 20
30.750216
 30
0.0
 10
8.454422
 20
27.469107
 30
0.0
 10
9.959894
 20
24.346874
 30
0.0
 10
11.750488
 20
21.401529
 30
0.0
 10
13.808170
 20
18.651107
 30
0.0
 10
16.114904
 20
16.113647
 30
0.0
 10
18.652656
 20
13.807183
 30
0.0
 10
21.403392
 20
11.749744
 30
0.0
 10
24.349077
 20
9.959360
 30
0.0
 10
27.471676
 20
8.454060
 30
0.0
 10
30.753155
 20
7.251889
 30
0.0
 10
34.175479
 20
6.370879
 30
0.0
 10
37.720613
 20
5.829060
 30
0.0
 10
41.370523
 20
5.644444
 30
0.0
 10
45.020428
 20
5.829060
 30
0.0
 10
48.565559
 20
6.370901
 30
0.0
 10
51.987880
 20
7.251912
 30
0.0
 10
55.269357
 20
8.454085
 30
0.0
 10
58.391954
 20
9.959385
 30
0.0
 10
61.337643
 20
11.749772
 30
0.0
 10
64.088378
 20
13.807211
 30
0.0
 10
66.626132
 20
16.113664
 30
0.0
 10
68.932867
 20
18.651124
 30
0.0
 10
70.990549
 20
21.401535
 30
0.0
 10
72.781144
 20
24.346882
 30
0.0
 10
74.286619
 20
27.469115
 30
0.0
 10
75.488940
 20
30.750222
 30
0.0
 10
76.370066
 20
34.172152
 30
0.0
 10
76.911966
 20
37.716886
 30
0.0
 10
77.096602
 20
41.366381
 30
0.0
 10
77.096602
 20
41.366945
 30
0.0
 10
77.015508
 20
43.763695
 30
0.0
 10
76.776215
 20
46.129880
 30
0.0
 10
76.382687
 20
48.458969
 30
0.0
 10
75.838892
 20
50.744405
 30
0.0
 10
75.148794
 20
52.979670
 30
0.0
 10
74.316360
 20
55.158197
 30
0.0
 10
73.345555
 20
57.273472
 30
0.0
 10
72.240339
 20
59.318937
 30
0.0
 10
71.004685
 20
61.288061
 30
0.0
 10
69.642557
 20
63.174296
 30
0.0
 10
68.157916
 20
64.971103
 30
0.0
 10
66.554727
 20
66.671949
 30
0.0
 10
64.836961
 20
68.270287
 30
0.0
 10
63.008579
 20
69.759570
 30
0.0
 10
61.073548
 20
71.133262
 30
0.0
 10
59.035833
 20
72.384841
 30
0.0
 10
58.221077
 20
82.643320
 30
0.0
 10
57.944124
 20
83.395191
 30
0.0
 10
57.355572
 20
83.866713
 30
0.0
 10
56.611329
 20
83.988487
 30
0.0
 10
55.867304
 20
83.691095
 30
0.0
 10
47.489918
 20
77.270641
 30
0.0
 10
42.658879
 20
86.154393
 30
0.0
 10
42.102477
 20
86.724366
 30
0.0
 10
41.330200
 20
86.919424
 30
0.0
 10
41.330200
 20
86.919424
 30
0.0
  0
ENDSEC
  0
SECTION
  2
OBJECTS
  0
DICTIONARY
  5
C
330
0
100
AcDbDictionary
  3
ACAD_GROUP
350
D
  3
ACAD_MLINESTYLE
350
17
  0
DICTIONARY
  5
D
330
C
100
AcDbDictionary
  0
DICTIONARY
  5
1A
330
C
100
AcDbDictionary
  0
DICTIONARY
  5
17
330
C
100
AcDbDictionary
  3
STANDARD
350
18
  0
DICTIONARY
  5
19
330
C
100
AcDbDictionary
  0
ENDSEC
  0
EOF
