M48
INCH,TZ
T1C0.013
%
G90
G05
T1
X44140Y-37250
X47953Y-41510
X51540Y-42250
X52680Y-27250
X52718Y-43249
X53190Y-41660
X53560Y-36260
X54240Y-37270
X54659Y-42276
X54681Y-45261
X55020Y-39360
X56077Y-40701
X56080Y-41704
X56566Y-34610
X57220Y-36200
X57274Y-35230
X58198Y-40297
X59170Y-50890
X59760Y-37760
X61354Y-41975
X62400Y-49180
X63250Y-32250
X63260Y-34280
X63347Y-38300
X64650Y-37300
T0
M30
