<?xml version="1.0" encoding="UTF-8" standalone="no"?>
<!-- Created with Inkscape (http://www.inkscape.org/) -->

<svg
   xmlns:dc="http://purl.org/dc/elements/1.1/"
   xmlns:cc="http://creativecommons.org/ns#"
   xmlns:rdf="http://www.w3.org/1999/02/22-rdf-syntax-ns#"
   xmlns:svg="http://www.w3.org/2000/svg"
   xmlns="http://www.w3.org/2000/svg"
   xmlns:sodipodi="http://sodipodi.sourceforge.net/DTD/sodipodi-0.dtd"
   xmlns:inkscape="http://www.inkscape.org/namespaces/inkscape"
   inkscape:export-ydpi="39.575039"
   inkscape:export-xdpi="39.575039"
   inkscape:export-filename="/home/vixtor/Hormiga mascota GranaBot.png"
   sodipodi:docname="Borde_Gus.svg"
   inkscape:version="0.91 r13725"
   id="svg8"
   version="1.1"
   viewBox="0 0 110.1559 119.97305"
   height="119.97305mm"
   width="110.1559mm">
  <sodipodi:namedview
     borderlayer="true"
     inkscape:snap-global="false"
     inkscape:window-maximized="0"
     inkscape:window-y="27"
     inkscape:window-x="419"
     inkscape:window-height="1006"
     inkscape:window-width="1499"
     fit-margin-bottom="20"
     fit-margin-right="20"
     fit-margin-left="20"
     fit-margin-top="20"
     showgrid="false"
     inkscape:current-layer="layer11"
     inkscape:document-units="mm"
     inkscape:cy="289.51268"
     inkscape:cx="173.14009"
     inkscape:zoom="13.120939"
     inkscape:pageshadow="2"
     inkscape:pageopacity="0.0"
     borderopacity="1.0"
     bordercolor="#666666"
     pagecolor="#ffffff"
     id="base" />
  <defs
     id="defs2" />
  <metadata
     id="metadata5">
    <rdf:RDF>
      <cc:Work
         rdf:about="">
        <dc:format>image/svg+xml</dc:format>
        <dc:type
           rdf:resource="http://purl.org/dc/dcmitype/StillImage" />
        <dc:title></dc:title>
      </cc:Work>
    </rdf:RDF>
  </metadata>
  <g
     transform="translate(100.1455,-415.57832)"
     style="display:inline"
     inkscape:label="SilkS"
     id="layer11"
     inkscape:groupmode="layer">
    <path
       style="fill:#000000"
       d="m -57.998006,454.10002 c 0.01298,-0.0804 0.04144,-0.1635 0.06325,-0.18458 0.0218,-0.0211 0.364837,-0.0944 0.762297,-0.16297 3.793999,-0.65439 7.660782,-0.85446 10.788722,-0.5582 0.255251,0.0242 0.474704,0.0382 0.487674,0.0311 0.01297,-0.007 0.05457,-0.0956 0.09245,-0.19689 l 0.06887,-0.18407 -0.341635,-0.90786 c -0.187899,-0.49932 -0.341772,-0.91173 -0.34194,-0.91646 -1.72e-4,-0.005 0.142935,-0.009 0.318007,-0.008 l 0.318314,1.8e-4 0.189267,0.5709 0.189268,0.5709 0.182987,-0.57106 0.182988,-0.57106 0.307387,0 c 0.169064,0 0.307388,0.004 0.307388,0.009 0,0.005 -0.185827,0.51001 -0.412948,1.12209 -0.227121,0.61208 -0.412947,1.1247 -0.412947,1.13915 0,0.0145 0.09678,0.0367 0.215077,0.0494 0.605168,0.0651 0.814539,0.10001 0.794521,0.1324 -0.02067,0.0334 -0.603553,0.0146 -0.925334,-0.0299 -0.125314,-0.0173 -0.143512,-0.0103 -0.179926,0.0696 -0.03926,0.0862 -0.05022,0.0889 -0.354973,0.0889 -0.336201,0 -0.331175,0.003 -0.25717,-0.17511 0.01963,-0.0473 -0.04091,-0.0601 -0.452058,-0.0952 -1.151816,-0.0984 -2.129598,-0.12209 -3.277974,-0.0794 -2.494683,0.0927 -4.623186,0.33596 -7.411725,0.84693 -0.470163,0.0862 -0.870275,0.15665 -0.889142,0.15665 -0.02112,0 -0.02523,-0.0562 -0.01069,-0.14625 z m 10.128828,-1.23086 c -0.226946,-0.1199 -0.344034,-0.41291 -0.271958,-0.68058 0.08327,-0.30922 0.338644,-0.4608 0.863212,-0.51234 0.157274,-0.0155 0.29158,-0.0451 0.298458,-0.0659 0.0069,-0.0208 -0.0169,-0.0741 -0.05285,-0.11852 -0.114877,-0.14187 -0.558241,-0.13057 -0.926258,0.0236 -0.03203,0.0134 -0.04302,-0.0436 -0.04302,-0.22341 0,-0.27368 -0.02321,-0.2531 0.35859,-0.31796 0.430846,-0.0732 0.885868,0.005 1.082088,0.18537 0.159427,0.14674 0.176699,0.24655 0.176699,1.02101 l 0,0.72376 -0.292504,0 c -0.289063,0 -0.292504,-0.001 -0.292504,-0.086 0,-0.089 -0.0471,-0.11461 -0.08825,-0.048 -0.01292,0.0209 -0.08738,0.067 -0.165489,0.10248 -0.187793,0.0853 -0.481251,0.0837 -0.646222,-0.003 z m 0.788117,-0.41195 c 0.104461,-0.0637 0.111839,-0.0807 0.111839,-0.25837 l 0,-0.19018 -0.146252,0.0207 c -0.232662,0.0329 -0.367811,0.0839 -0.404608,0.15268 -0.137212,0.25637 0.162124,0.444 0.439021,0.27517 z m -10.693615,-0.79492 0,-1.2419 0.696848,0.0122 c 0.631194,0.0111 0.709818,0.0191 0.834498,0.0854 0.259991,0.13834 0.371451,0.3383 0.371451,0.66639 0,0.26747 -0.06891,0.4348 -0.241445,0.58629 -0.175758,0.15431 -0.257,0.17632 -0.723618,0.19594 l -0.42155,0.0177 0,0.45992 0,0.45993 -0.258091,0 -0.258093,0 0,-1.24191 z m 1.293492,-0.24835 c 0.118715,-0.1381 0.111831,-0.31006 -0.01759,-0.43948 -0.09717,-0.0972 -0.111783,-0.10059 -0.430154,-0.10059 l -0.329564,0 0,0.33014 0,0.33014 0.347156,-0.0118 c 0.331054,-0.0113 0.351004,-0.0163 0.430153,-0.10838 z m 3.042454,0.23415 0,-1.26222 0.679643,0.0117 c 0.644154,0.0111 0.688596,0.0162 0.851127,0.0978 0.210357,0.10553 0.301023,0.24955 0.301023,0.47818 0,0.20586 -0.08624,0.39399 -0.219215,0.47818 l -0.101411,0.0642 0.137247,0.0619 c 0.252875,0.11403 0.294322,0.18828 0.307681,0.55119 l 0.0118,0.32057 -0.132244,0.1468 c -0.234236,0.26002 -0.339659,0.28796 -1.138804,0.30184 l -0.696848,0.0121 0,-1.26222 z m 1.160141,0.7382 c 0.187424,-0.0653 0.241051,-0.32083 0.09747,-0.46441 -0.07568,-0.0757 -0.11326,-0.0845 -0.361328,-0.0845 l -0.276864,0 0,0.29251 0,0.2925 0.218545,0 c 0.1202,0 0.265179,-0.0162 0.322175,-0.0361 z m -0.05948,-1.08178 c 0.04628,-0.0419 0.06936,-0.10614 0.06936,-0.19314 0,-0.17569 -0.09155,-0.2375 -0.35178,-0.2375 l -0.198818,0 0,0.23515 c 0,0.12933 0.01161,0.24697 0.02581,0.26141 0.04731,0.0481 0.383101,-3e-4 0.45543,-0.0659 z m 1.483919,1.47182 c -0.196847,-0.75299 -0.588667,-2.31349 -0.588667,-2.34448 0,-0.0273 0.101977,-0.0397 0.324158,-0.0397 l 0.324158,0 0.05148,0.23228 c 0.02832,0.12776 0.102584,0.48316 0.165042,0.78979 0.06246,0.30662 0.121831,0.54939 0.13194,0.53949 0.01011,-0.01 0.104451,-0.36145 0.209651,-0.78119 l 0.19127,-0.76317 0.323346,0 0.323346,0 0.180419,0.75707 c 0.09923,0.41639 0.185633,0.7803 0.192008,0.80869 0.0064,0.0284 0.07823,-0.25809 0.159676,-0.63663 0.08145,-0.37853 0.162814,-0.74631 0.180817,-0.81729 l 0.03273,-0.12904 0.32559,0 c 0.179075,0 0.324604,0.004 0.323399,0.009 -0.0012,0.005 -0.144446,0.56608 -0.318314,1.24745 l -0.316122,1.23884 -0.350034,0.01 c -0.310961,0.009 -0.352123,0.003 -0.368749,-0.0516 -0.01029,-0.0338 -0.09686,-0.36226 -0.192362,-0.72997 -0.09551,-0.36772 -0.179047,-0.67398 -0.185645,-0.68058 -0.0066,-0.007 -0.09546,0.31749 -0.197467,0.72019 l -0.185471,0.7322 -0.35108,0.01 -0.35108,0.01 -0.03404,-0.13023 z m -4.114119,0.004 c -0.224861,-0.0719 -0.446036,-0.22751 -0.57442,-0.40412 -0.182214,-0.25067 -0.213457,-0.35593 -0.216134,-0.72826 -0.0022,-0.29969 0.0085,-0.36634 0.08261,-0.51618 0.114145,-0.23085 0.340412,-0.45026 0.578938,-0.56141 0.271977,-0.12674 0.695836,-0.14623 0.983246,-0.0452 0.181639,0.0638 0.572069,0.32308 0.572069,0.37984 0,0.0126 -0.07042,0.0818 -0.156481,0.15374 l -0.156481,0.13081 -0.179039,-0.12189 c -0.384207,-0.26155 -0.75937,-0.24679 -1.0566,0.0416 -0.486836,0.4723 -0.178285,1.27555 0.494416,1.28712 0.25537,0.004 0.383094,-0.0338 0.556833,-0.16639 0.0846,-0.0646 0.166033,-0.11742 0.180955,-0.11742 0.01493,0 0.08749,0.0618 0.161266,0.13737 l 0.134135,0.13736 -0.09651,0.10074 c -0.05308,0.0554 -0.190326,0.15074 -0.304991,0.21185 -0.182446,0.0972 -0.247511,0.11261 -0.521017,0.12303 -0.218928,0.008 -0.363529,-0.004 -0.482791,-0.0426 z"
       id="path4432"
       inkscape:connector-curvature="0" />
  </g>
  <g
     style="display:none"
     inkscape:label="SilkS2"
     id="layer1"
     inkscape:groupmode="layer">
    <path
       style="color:#000000;font-style:normal;font-variant:normal;font-weight:normal;font-stretch:normal;font-size:medium;line-height:normal;font-family:sans-serif;text-indent:0;text-align:start;text-decoration:none;text-decoration-line:none;text-decoration-style:solid;text-decoration-color:#000000;letter-spacing:normal;word-spacing:normal;text-transform:none;direction:ltr;writing-mode:lr-tb;baseline-shift:baseline;text-anchor:start;white-space:normal;clip-rule:nonzero;display:inline;overflow:visible;visibility:visible;opacity:1;isolation:auto;mix-blend-mode:normal;color-interpolation:sRGB;color-interpolation-filters:linearRGB;solid-color:#000000;solid-opacity:1;fill:#000000;fill-opacity:1;fill-rule:evenodd;stroke:none;stroke-width:10;stroke-linecap:butt;stroke-linejoin:miter;stroke-miterlimit:4;stroke-dasharray:none;stroke-dashoffset:0;stroke-opacity:1;color-rendering:auto;image-rendering:auto;shape-rendering:auto;text-rendering:auto;enable-background:accumulate"
       d="m 50.659552,40.89094 -0.174258,-0.195535 -0.211588,-0.163602 -0.240943,-0.130617 -0.262319,-0.09665 -0.275725,-0.06164 -0.281156,-0.02565 -0.278606,0.01138 -0.268084,0.04945 -0.415984,0.12121 -0.343495,0.149589 -0.324865,0.23027 -0.360097,0.363241 -0.132574,0.24953 -0.02953,0.256285 0.05641,0.240736 0.12523,0.202815 0.176928,0.142575 0.21151,0.05994 0.228975,-0.04494 0.115686,-0.06881 0.113635,-0.103414 0.148313,-0.166323 0.131399,-0.169639 0.375748,0.398766 0.350164,0.402519 -0.284597,0.243477 -0.256113,0.266506 -0.224711,0.287014 -0.190395,0.305039 -0.153159,0.320582 -0.113011,0.333612 -0.06994,0.34415 -0.02396,0.352198 0.0059,4.722066 0.98216,0.142768 0.9203,0.10119 0.477331,0.213147 0.507509,0.147046 -0.0035,0.184591 -0.319489,0.277016 -1.349177,-0.106319 -1.271937,-0.170616 -0.441369,-0.10487 -0.578081,-0.09999 -0.329146,0.01308 -0.340605,0.09653 -0.316223,0.194405 -0.137768,0.138408 -0.118232,0.168289 -0.139728,0.3071 -0.243545,0.187349 -0.205984,0.227277 -1.180476,-0.275538 -0.166105,-0.244874 -0.216076,-0.20167 -0.05087,-0.275538 -0.112245,-0.240527 -0.166698,-0.192855 -0.214238,-0.132517 -0.697199,-0.272012 -0.637689,-0.214507 -1.134475,-0.294367 -1.009304,-0.177999 -0.959383,-0.13738 0.02361,-0.08232 0.08531,-0.277074 0.02712,-0.158037 0.0016,-0.182447 -0.02927,-0.177142 -0.05892,-0.165441 -0.08613,-0.148045 -0.11094,-0.124914 -0.12968,-0.09659 -0.140619,-0.06799 -0.293904,-0.05676 -0.291427,0.03902 -0.269537,0.128335 -0.217351,0.212896 -0.07964,0.136656 -0.05523,0.156004 -0.135459,0.5051 -0.481238,-0.14118 -0.178758,-0.03702 -0.174414,-0.0023 -0.322294,0.08187 -1.123073,-0.293496 -0.232415,-0.03067 -0.227063,0.01752 -0.211772,0.06178 -0.18654,0.102527 -0.151367,0.139494 -0.106254,0.172767 -0.0512,0.202312 0.0138,0.228158 -0.192907,0.101869 -0.141883,0.151 -0.0928,0.184931 -0.04565,0.203732 -4.43e-4,0.207309 0.04283,0.195758 0.08418,0.169004 0.123576,0.127085 -0.09011,0.215498 -0.01916,0.201558 0.04127,0.184916 0.09123,0.16556 0.130706,0.143486 0.15968,0.118705 0.178165,0.09121 0.186154,0.06097 1.0728,0.264178 0.221322,0.174644 0.28104,0.109378 0.955721,0.22509 0.809196,0.228874 1.387753,0.446322 0.681186,0.204633 0.73413,0.18063 0.830633,0.14775 0.970697,0.106008 0.02342,0.0037 0.102643,0.0095 0.284834,0.0014 0.182992,-0.02601 0.200326,-0.06371 0.195137,-0.119103 0.167428,-0.192196 0.0341,-0.06008 0.286567,-0.07778 0.261719,-0.139546 1.403808,0.317316 0.195772,0.324491 0.258922,0.270733 -0.173308,0.169366 -0.148389,0.192373 -0.120568,0.212896 -0.08984,0.230913 -2.13531,0.526953 -0.2647,-0.134808 -0.288663,-0.07242 -0.1678,-0.208765 -0.203274,-0.153484 -0.227989,-0.09084 -0.241951,-0.02092 -0.745364,0.06725 -0.666456,0.09222 -1.146762,0.242162 -0.98284,0.29054 -0.920057,0.304648 -0.01557,-0.0842 -0.04711,-0.286053 -0.04615,-0.153573 -0.07984,-0.16406 -0.105162,-0.145525 -0.126496,-0.121846 -0.143108,-0.09413 -0.154995,-0.06237 -0.159136,-0.02868 -0.156166,0.0023 -0.288379,0.08018 -0.24351,0.164785 -0.184085,0.23503 -0.09968,0.287464 -0.01038,0.15783 0.02009,0.164276 0.103879,0.512518 -0.493701,0.08808 -0.176502,0.04656 -0.156772,0.07639 -0.25197,0.216939 -1.136261,0.237883 -0.255285,0.09208 -0.21124,0.124293 -0.164063,0.150728 -0.11375,0.171339 -0.06031,0.186171 -0.0037,0.195182 0.056,0.19841 0.118849,0.195816 -0.126596,0.182493 -0.06532,0.198063 -0.0095,0.202993 0.04091,0.197258 0.08584,0.180888 0.125311,0.153846 0.159328,0.116148 0.187891,0.06785 0.04992,0.230427 0.08509,0.187057 0.115784,0.145962 0.142008,0.107125 0.163761,0.07058 0.181042,0.03629 0.193856,0.0044 0.202195,-0.02565 1.078134,-0.241733 0.275952,0.05772 0.30033,-0.02741 0.352586,-0.111034 0.425108,-0.09984 1.017148,-0.180155 1.155326,-0.177512 1.192223,-0.202911 1.127843,-0.256366 0.508131,-0.156996 0.454057,-0.180879 0.387321,-0.20827 0.30793,-0.239169 0.215877,-0.273563 0.06946,-0.150779 0.04171,-0.160698 0.254284,-0.221077 0.190462,-0.27856 2.114104,-0.52016 0.22502,0.1915 0.252734,0.149619 0.274809,0.104493 0.291254,0.05617 0.09941,0.182766 0.124753,0.153942 0.308433,0.234299 0.358503,0.157785 0.374389,0.107146 -0.107739,0.27063 -0.05942,0.307686 -0.0124,0.329413 0.03337,0.335798 0.07785,0.326827 0.121059,0.302534 0.162991,0.262877 0.203649,0.207901 0.01459,0.01035 -0.378963,0.131157 -0.371147,0.192299 -0.260811,0.222911 -0.206755,0.297516 -0.12802,0.360482 -0.02678,0.20023 0.0022,0.211616 0.007,0.313214 -0.02027,0.339057 -0.07794,0.737749 -0.05375,0.787562 0.01,0.401313 0.04934,0.400383 0.109218,0.283203 0.149315,0.197552 0.182702,0.123509 0.209386,0.06104 0.229363,0.01028 0.242633,-0.02904 0.498253,-0.129438 0.215354,0.308565 -0.950738,2.08512 -0.248303,0.01965 -0.227847,0.06319 -0.207179,0.09762 -0.186294,0.122984 -0.309081,0.285683 -0.222972,0.278066 -0.411977,0.366076 -0.436159,0.430196 -0.405583,0.441387 -0.320249,0.39968 -1.839636,3.180854 -0.901593,1.544857 -0.840694,1.487144 -0.302411,0.23283 -0.21311,0.245101 -0.1584,0.299963 -0.138286,0.397421 -0.03756,0.165078 0.07068,0.152102 0.10933,0.262723 0.08017,0.171562 0.114075,0.181642 -0.179378,0.328408 1.21568,0.701396 0.60527,0.312606 0.600221,0.275685 0.599711,-0.02143 0.976466,0.398225 0.913789,0.371258 0.630759,-0.08522 0.277235,-0.06785 0.252337,-0.09741 0.130726,-0.115143 0.103679,-0.161548 0.136832,-0.409895 0.0605,-0.438208 0.0054,-0.36165 0.657741,-1.656385 0.602924,-1.646558 1.223154,-3.463106 0.01305,-0.03622 0.006,-0.03799 0.102081,-1.016663 0.02739,-0.947642 -0.08442,-0.31731 0.1071,-0.309185 0.04649,-0.364148 -0.02192,-0.251674 -0.06236,-0.237447 -0.09774,-0.220663 -0.128036,-0.201307 1.082143,-2.32411 0.36806,-0.168103 0.314633,-0.245554 0.249553,-0.310634 0.172819,-0.363359 0.841824,-0.02461 0.180359,0.386151 0.266344,0.327048 0.338261,0.253292 0.396109,0.164865 1.070279,2.339018 -0.121237,0.197346 -0.09235,0.215415 -0.05881,0.231054 -0.02063,0.244262 0.0465,0.364081 0.107092,0.309134 -0.08447,0.317432 0.04169,1.028806 0.09391,0.973431 1.276798,3.557764 0.611802,1.687869 0.608279,1.556614 0.0018,0.355029 0.04006,0.332436 0.243134,0.723596 0.331363,0.135762 0.328239,0.09531 0.652837,0.09473 0.994458,-0.386916 0.895792,-0.382522 0.599713,0.02143 1.254099,-0.612767 1.167071,-0.676972 -0.17942,-0.328489 0.204764,-0.379113 0.181684,-0.388375 -0.190574,-0.521307 -0.108065,-0.244392 -0.131382,-0.228527 -0.432029,-0.346589 -0.913863,-1.63463 -0.92319,-1.597565 -1.735568,-2.967135 -0.354736,-0.445657 -0.378956,-0.410744 -0.759911,-0.762242 -0.243231,-0.08374 -0.228677,-0.31045 -0.294824,-0.250572 -0.351292,-0.174487 -0.398079,-0.08224 -0.981731,-2.113595 0.20917,-0.311077 0.455395,0.04228 0.494266,-0.03467 0.232286,-0.06399 0.206696,-0.104596 0.169335,-0.152332 0.12021,-0.207197 0.04769,-0.192122 0.01163,-0.19153 -0.04873,-0.380843 -0.0841,-0.37711 -0.04686,-0.372486 0.03582,-0.997604 -0.0084,-0.526722 -0.06148,-0.540781 -0.05383,-0.200316 -0.08404,-0.18176 -0.108832,-0.159117 -0.128196,-0.132354 -0.214842,-0.145584 -0.227064,-0.107199 -0.466922,-0.149965 0.160904,-0.161245 0.132714,-0.189068 0.189559,-0.431115 0.102866,-0.450948 0.03355,-0.409866 -0.03427,-0.325969 -0.05394,-0.166395 -0.08829,-0.159641 0.386724,-0.121187 0.366825,-0.176351 0.315567,-0.242878 0.12876,-0.149959 0.104187,-0.170875 0.245351,-0.07072 0.230799,-0.105543 0.2127,-0.138363 0.191044,-0.169174 2.114396,0.520196 0.190819,0.277437 0.256023,0.221174 0.0047,0.194382 0.07403,0.182698 0.135679,0.171185 0.189504,0.159833 0.509223,0.286268 0.630739,0.242826 0.689732,0.200709 0.686204,0.159893 1.111714,0.202622 1.441225,0.219045 0.826385,0.155812 0.955862,0.224507 0.300334,0.02741 0.275947,-0.05772 1.07809,0.241645 0.390686,0.02846 0.180335,-0.03148 0.168337,-0.06623 0.170457,-0.145297 0.125024,-0.160585 0.07586,-0.179277 0.02295,-0.201353 0.194895,-0.108232 0.161361,-0.150514 0.120929,-0.178825 0.07354,-0.193194 0.01404,-0.169446 -0.02778,-0.17981 -0.05913,-0.172388 -0.07995,-0.147182 0.122644,-0.282484 0.0323,-0.247157 -0.04168,-0.212608 -0.09936,-0.178826 -0.140699,-0.145813 -0.165692,-0.113576 -0.341068,-0.133508 -1.136175,-0.23789 -0.252784,-0.20459 -0.256127,-0.111106 -0.570121,-0.112276 0.103881,-0.512526 0.02009,-0.164267 -0.01037,-0.15783 -0.09968,-0.287465 -0.184083,-0.235023 -0.243507,-0.164799 -0.340214,-0.07272 -0.311573,0.04435 -0.269039,0.15115 -0.21262,0.247807 -0.07821,0.170962 -0.0497,0.1742 -0.06081,0.342716 -0.920044,-0.304655 -0.982839,-0.290562 -1.146756,-0.242161 -0.666447,-0.09223 -0.745349,-0.06725 -0.241967,0.02092 -0.228019,0.09084 -0.203303,0.153498 -0.167811,0.208779 -0.288572,0.07242 -0.264622,0.134756 -2.155028,-0.531763 -0.09013,-0.225668 -0.119767,-0.208209 -0.146584,-0.188418 -0.170588,-0.166314 0.26078,-0.275058 0.195878,-0.329391 1.345298,-0.304123 0.305672,0.164615 0.338894,0.07955 0.07848,0.160432 0.13902,0.120478 0.192174,0.08409 0.237937,0.05122 0.58361,0.01818 0.677982,-0.07043 0.713241,-0.130604 0.689374,-0.162352 1.070668,-0.306054 1.387779,-0.446328 0.809207,-0.228875 0.955728,-0.22509 0.281,-0.109377 0.221276,-0.174651 0.471743,-0.09672 0.486667,-0.117937 0.433421,-0.174562 0.175441,-0.119584 0.136569,-0.147032 0.103082,-0.197495 0.03863,-0.200451 -0.02048,-0.199069 -0.0743,-0.19334 0.124598,-0.199209 0.07217,-0.238578 0.01938,-0.2403 -0.03381,-0.204411 -0.16195,-0.262545 -0.243406,-0.195602 0.02721,-0.29612 -0.061,-0.230713 -0.129591,-0.171687 -0.17854,-0.119008 -0.207849,-0.07272 -0.217523,-0.03274 -0.207556,6.26e-4 -0.177957,0.02816 -1.123118,0.29354 -0.316678,-0.08698 -0.278862,0.01655 -0.561121,0.16825 -0.13546,-0.505092 -0.05513,-0.157112 -0.07939,-0.139339 -0.216773,-0.219231 -0.269422,-0.129612 -0.292466,-0.02757 -0.279427,0.05994 -0.220678,0.115728 -0.164095,0.16253 -0.109681,0.200318 -0.05743,0.229058 -0.0074,0.248762 0.04056,0.25944 0.08631,0.261082 -0.959413,0.13738 -1.009333,0.177976 -1.134503,0.294354 -0.637709,0.214499 -0.69722,0.272019 -0.214525,0.132768 -0.166815,0.193298 -0.112172,0.241075 -0.05059,0.276129 -0.235775,0.202401 -0.181233,0.250542 -1.167504,0.272419 -0.153188,-0.175175 -0.175683,-0.152974 -0.113886,-0.310959 -0.183284,-0.299808 -0.132276,-0.147158 -0.147659,-0.116318 -0.324695,-0.149597 -0.335925,-0.05461 -0.313622,0.02143 -0.532036,0.143361 -0.390924,0.120433 -1.248042,0.196076 -1.298644,0.10702 -0.301645,-0.267208 3.53e-4,-0.186925 0.541487,-0.15217 0.502674,-0.230225 0.918169,-0.104501 0.88084,-0.129591 0,-4.722242 -0.02742,-0.36021 -0.08003,-0.356404 -0.129249,-0.348849 -0.175139,-0.337573 -0.21764,-0.322562 -0.256775,-0.303813 -0.292542,-0.281315 -0.324936,-0.255119 0.327382,-0.536892 0.129637,0.226331 0.155666,0.214161 0.185912,0.162492 0.105618,0.04951 0.114763,0.02181 0.244141,-0.03533 0.195553,-0.118861 0.140378,-0.179439 0.07862,-0.217147 0.0081,-0.221327 -0.02938,-0.120095 -0.06012,-0.121595 -0.252823,-0.372668 -0.389185,-0.464282 -0.257716,-0.257947 -0.27939,-0.159331 -0.29439,-0.07132 -0.302722,0.0059 -0.304376,0.07265 -0.299365,0.128755 -0.287682,0.174163 -0.269399,0.208935 -0.110623,-0.30917 -0.117094,-0.231439 -0.160873,-0.176853 -0.241988,-0.145481 -0.152249,0.03141 -0.255346,0.106216 -0.158733,0.109408 -0.175387,0.162019 -0.189003,0.225904 -0.19958,0.301093 5.8e-5,4.5e-5"
       id="path1923"
       inkscape:connector-curvature="0"
       sodipodi:nodetypes="csccccccccccsccccccccccscccsccccccccccsccccccccccccccccccccccccccccccccscccccccccccccccccccccsccccccsccccccccccccccccccccccsccccccccccccccscccccccccccccccccccscccscccscccccccsccccccsccssccccc" />
  </g>
  <g
     style="display:inline"
     inkscape:label="SilkS1"
     id="layer2"
     inkscape:groupmode="layer">
    <path
       style="display:inline;opacity:1;fill:none;fill-opacity:1;stroke:#ff701d;stroke-width:1.51894534;stroke-linecap:round;stroke-linejoin:round;stroke-miterlimit:0;stroke-dasharray:none;stroke-dashoffset:0;stroke-opacity:1"
       d="m 50.738495,21.134776 -4.836885,8.894257 -0.119018,0.01444 -8.327779,-6.382399 -0.757418,9.53715 -1.749394,1.02223 -1.661683,1.129498 -1.570522,1.230981 -1.475908,1.326707 -1.377842,1.416637 -1.276325,1.500809 -1.171354,1.579187 -1.062936,1.651798 -0.951062,1.718625 -0.835738,1.779689 -0.716961,1.834965 -0.594734,1.884466 -0.469055,1.928199 -0.339924,1.96615 -0.20734,1.998317 -0.0713,2.024716 0.144708,2.922576 0.428777,2.873075 0.704813,2.804185 0.972818,2.715908 1.232788,2.608238 1.484728,2.481179 1.728634,2.33472 1.964509,2.168891 2.169163,1.964265 2.33502,1.728411 2.481489,1.484545 2.608564,1.232634 2.716247,0.972688 2.804539,0.704729 2.873439,0.428721 2.922947,0.144694 2.922942,-0.144701 2.873433,-0.42872 2.804539,-0.704732 2.716243,-0.972696 2.608551,-1.232644 2.481489,-1.484535 2.335013,-1.72842 2.169161,-1.964263 1.964498,-2.168885 1.728637,-2.334729 1.484716,-2.481169 1.232789,-2.608231 0.972811,-2.715904 0.704816,-2.804186 0.428781,-2.873068 0.144702,-2.922576 -0.06987,-2.026412 -0.206132,-2.000055 -0.338945,-1.967915 -0.468298,-1.929968 -0.594193,-1.886233 -0.716637,-1.836719 -0.835623,-1.781409 -0.95114,-1.720303 -1.063209,-1.653398 -1.171817,-1.580727 -1.276977,-1.502235 -1.378658,-1.417978 -1.4769,-1.327908 -1.571673,-1.232063 -1.663004,-1.130414 -1.750852,-1.022991 -0.755584,-9.513396 -8.359142,6.406473 -0.07272,-0.01098 -4.851789,-8.921764"
       id="path857"
       inkscape:connector-curvature="0" />
  </g>
</svg>
