<?xml version="1.0" encoding="UTF-8" standalone="no"?>
<!-- Created with Inkscape (http://www.inkscape.org/) -->

<svg
   xmlns:dc="http://purl.org/dc/elements/1.1/"
   xmlns:cc="http://creativecommons.org/ns#"
   xmlns:rdf="http://www.w3.org/1999/02/22-rdf-syntax-ns#"
   xmlns:svg="http://www.w3.org/2000/svg"
   xmlns="http://www.w3.org/2000/svg"
   xmlns:sodipodi="http://sodipodi.sourceforge.net/DTD/sodipodi-0.dtd"
   xmlns:inkscape="http://www.inkscape.org/namespaces/inkscape"
   width="85.87439mm"
   height="85.598083mm"
   viewBox="0 0 85.874389 85.598083"
   version="1.1"
   id="svg8"
   inkscape:version="0.91 r13725"
   sodipodi:docname="contorno.svg"
   inkscape:export-filename="/home/vixtor/Hormiga mascota GranaBot.png"
   inkscape:export-xdpi="39.575039"
   inkscape:export-ydpi="39.575039">
  <sodipodi:namedview
     id="base"
     pagecolor="#ffffff"
     bordercolor="#666666"
     borderopacity="1.0"
     inkscape:pageopacity="0.0"
     inkscape:pageshadow="2"
     inkscape:zoom="2.3194763"
     inkscape:cx="120.475"
     inkscape:cy="2678.0005"
     inkscape:document-units="mm"
     inkscape:current-layer="layer12"
     showgrid="false"
     fit-margin-top="20"
     fit-margin-left="20"
     fit-margin-right="20"
     fit-margin-bottom="20"
     inkscape:window-width="1858"
     inkscape:window-height="1053"
     inkscape:window-x="62"
     inkscape:window-y="27"
     inkscape:window-maximized="1"
     inkscape:snap-global="false"
     showguides="true"
     borderlayer="true" />
  <defs
     id="defs2" />
  <metadata
     id="metadata5">
    <rdf:RDF>
      <cc:Work
         rdf:about="">
        <dc:format>image/svg+xml</dc:format>
        <dc:type
           rdf:resource="http://purl.org/dc/dcmitype/StillImage" />
        <dc:title></dc:title>
      </cc:Work>
    </rdf:RDF>
  </metadata>
  <g
     transform="translate(63.832203,-675.23712)"
     style="display:inline"
     inkscape:label="granada de fondo"
     id="layer12"
     inkscape:groupmode="layer">
    <path
       sodipodi:nodetypes="cccccccsssccccccc"
       inkscape:connector-curvature="0"
       id="path857-6"
       d="m -26.236055,-41.713147 -0.750489,0.222949 -0.539109,0.567718 -4.99311,9.181583 -8.658025,-6.635774 -0.768948,-0.307349 -0.769176,0.125848 -0.608269,0.487317 -0.286227,0.777058 -0.844419,10.630784 -2.104171,1.292525 -1.998234,1.418546 -1.888206,1.537827 -1.774087,1.650364 -1.655877,1.756158 -1.533576,1.855212 -1.407186,1.947521 -1.276703,2.03309 -1.142131,2.111915 -1.003467,2.1839985 -0.860713,2.2493394 -0.713867,2.3079379 -0.562933,2.3597942 -0.407905,2.404908 -0.248789,2.4432796 -0.08558,2.4749087 0,0.0014 0.190823,3.7717635 0.560052,3.6634852 0.910642,3.536572 1.242592,3.391022 1.555904,3.226835 1.850578,3.044012 2.126613,2.842555 2.384008,2.622459 2.622765,2.383729 2.842883,2.126361 3.044363,1.850358 3.227204,1.555719 3.391406,1.242443 3.536969,0.910532 3.663893,0.559984 3.772179,0.1908 3.772174,-0.190807 3.66389,-0.559989 3.536967,-0.910536 3.391404,-1.242447 3.2272034,-1.555721 3.0443631,-1.85036 2.8428841,-2.126361 2.62276636,-2.383728 2.38400964,-2.622457 2.1266141,-2.842551 1.8505796,-3.044009 1.5559063,-3.22683 1.2425941,-3.391015 0.9106431,-3.536564 0.5600532,-3.6634778 0.190824,-3.7717543 0,-4.274e-4 L 10.644685,2.8882689 10.397375,0.44281673 9.9906647,-1.9642903 9.4286529,-4.3262927 8.7154377,-6.6364308 7.8551171,-8.887945 l -1.0033278,-2.186131 -1.142237,-2.113988 -1.2770479,-2.035085 -1.4077608,-1.949423 -1.5343755,-1.857001 -1.65689214,-1.757819 -1.77531066,-1.651879 -1.889631,-1.539179 -1.9998534,-1.419718 -2.1059774,-1.293498 -0.8420514,-10.602131 -0.2862273,-0.777057 -0.6082685,-0.487317 -0.7691753,-0.125849 -0.768948,0.307349 -8.658025,6.635537 -4.992873,-9.181346 -0.575042,-0.589073 -0.798148,-0.201594 0,0"
       style="color:#000000;font-style:normal;font-variant:normal;font-weight:normal;font-stretch:normal;font-size:medium;line-height:normal;font-family:sans-serif;text-indent:0;text-align:start;text-decoration:none;text-decoration-line:none;text-decoration-style:solid;text-decoration-color:#000000;letter-spacing:normal;word-spacing:normal;text-transform:none;direction:ltr;writing-mode:lr-tb;baseline-shift:baseline;text-anchor:start;white-space:normal;clip-rule:nonzero;display:inline;overflow:visible;visibility:visible;opacity:1;isolation:auto;mix-blend-mode:normal;color-interpolation:sRGB;color-interpolation-filters:linearRGB;solid-color:#000000;solid-opacity:1;fill:#000000;fill-opacity:1;fill-rule:nonzero;stroke:none;stroke-width:25;stroke-linecap:round;stroke-linejoin:round;stroke-miterlimit:0;stroke-dasharray:none;stroke-dashoffset:0;stroke-opacity:1;color-rendering:auto;image-rendering:auto;shape-rendering:auto;text-rendering:auto;enable-background:accumulate" />
  </g>
</svg>
