<?xml version="1.0" encoding="UTF-8" standalone="no"?>
<!-- Created with Inkscape (http://www.inkscape.org/) -->

<svg
   xmlns:dc="http://purl.org/dc/elements/1.1/"
   xmlns:cc="http://creativecommons.org/ns#"
   xmlns:rdf="http://www.w3.org/1999/02/22-rdf-syntax-ns#"
   xmlns:svg="http://www.w3.org/2000/svg"
   xmlns="http://www.w3.org/2000/svg"
   xmlns:sodipodi="http://sodipodi.sourceforge.net/DTD/sodipodi-0.dtd"
   xmlns:inkscape="http://www.inkscape.org/namespaces/inkscape"
   inkscape:export-ydpi="39.575039"
   inkscape:export-xdpi="39.575039"
   inkscape:export-filename="/home/vixtor/Hormiga mascota GranaBot.png"
   sodipodi:docname="logo_letra_Paste.svg"
   inkscape:version="0.91 r13725"
   id="svg8"
   version="1.1"
   viewBox="0 0 103.03649 105.69469"
   height="105.69469mm"
   width="103.03649mm">
  <sodipodi:namedview
     borderlayer="true"
     inkscape:snap-global="false"
     inkscape:window-maximized="0"
     inkscape:window-y="45"
     inkscape:window-x="747"
     inkscape:window-height="992"
     inkscape:window-width="1137"
     fit-margin-bottom="20"
     fit-margin-right="20"
     fit-margin-left="20"
     fit-margin-top="20"
     showgrid="false"
     inkscape:current-layer="g4143"
     inkscape:document-units="mm"
     inkscape:cy="152.91739"
     inkscape:cx="282.71817"
     inkscape:zoom="7.2080695"
     inkscape:pageshadow="2"
     inkscape:pageopacity="0.0"
     borderopacity="1.0"
     bordercolor="#666666"
     pagecolor="#ffffff"
     id="base" />
  <defs
     id="defs2" />
  <metadata
     id="metadata5">
    <rdf:RDF>
      <cc:Work
         rdf:about="">
        <dc:format>image/svg+xml</dc:format>
        <dc:type
           rdf:resource="http://purl.org/dc/dcmitype/StillImage" />
        <dc:title></dc:title>
      </cc:Work>
    </rdf:RDF>
  </metadata>
  <g
     transform="translate(96.090651,-429.54236)"
     style="display:inline"
     inkscape:label="Paste"
     id="g4143"
     inkscape:groupmode="layer">
    <path
       inkscape:connector-curvature="0"
       id="path4145"
       d="m -26.734739,496.92727 -0.108872,-0.10851 -0.109008,-0.10865 -0.109108,-0.10875 -0.108912,-0.10855 -0.153083,0 -0.153276,0 -0.153416,0 -0.15314,0 -0.156645,-0.009 -0.156842,-0.009 -0.156985,-0.009 -0.156703,-0.009 -0.0036,-0.15702 -0.0036,-0.15722 -0.0036,-0.15737 -0.0036,-0.15708 0,-0.19697 0,-0.19643 0,-0.19812 -0.108485,-0.10837 -0.108622,-0.1085 -0.108722,-0.1086 -0.108525,-0.10841 -0.108485,-0.10837 -0.108622,-0.1085 -0.108722,-0.1086 -0.108525,-0.10841 0.108485,-0.10903 0.108622,-0.10917 0.108722,-0.10927 0.108525,-0.10907 0.108485,-0.10903 0.108622,-0.10918 0.108722,-0.10927 0.108525,-0.10907 0,-0.19757 0,-0.19704 0,-0.19873 0.0061,-0.15955 0.0061,-0.15974 0.0061,-0.1599 0.0061,-0.1596 0.159546,-0.0113 0.159746,-0.0113 0.159893,-0.0114 0.159604,-0.0113 0.153471,0 0.153665,0 0.153804,0 0.153528,0 0.109033,-0.10849 0.10917,-0.10862 0.10927,-0.10872 0.109073,-0.10853 0.109033,-0.10848 0.10917,-0.10863 0.109269,-0.10872 0.109073,-0.10852 0.108367,0.10848 0.108502,0.10863 0.108603,0.10872 0.108406,0.10852 0.108367,0.10849 0.108502,0.10862 0.108603,0.10872 0.108406,0.10853 0.177776,0 0.17729,0 0.17882,0 0.171574,0.007 0.171104,0.007 0.172582,0.007 0.06727,0.15264 -0.06563,0.13993 -0.188348,0.005 -0.187833,0.005 -0.189454,0.005 -0.150543,0 -0.150733,0 -0.15087,0 -0.150599,0 -0.113332,-0.11394 -0.113021,-0.11363 -0.113997,-0.11461 -0.128058,-0.12209 -0.127707,-0.12175 -0.12881,-0.1228 -0.136902,0.11381 -0.136526,0.11349 -0.137706,0.11448 -0.122176,0.12195 -0.121841,0.12162 -0.122893,0.12267 -0.176016,0.002 -0.175535,0.002 -0.17705,0.002 -0.176017,0.002 -0.175535,0.002 -0.17705,0.002 -0.0021,0.17602 -0.0021,0.17553 -0.0021,0.17705 -0.0021,0.17602 -0.0021,0.17553 -0.0021,0.17705 -0.122986,0.12321 -0.122648,0.12288 -0.123708,0.12393 -0.122986,0.12321 -0.122648,0.12287 -0.123708,0.12393 0.121162,0.12134 0.120831,0.121 0.121874,0.12205 0.121163,0.12133 0.120831,0.121 0.121874,0.12205 0.0039,0.17789 0.0039,0.17741 0.0039,0.17894 0.0039,0.1779 0.0039,0.17741 0.0039,0.17894 0.177896,0.004 0.177408,0.004 0.17894,0.004 0.177896,0.004 0.177408,0.004 0.178941,0.004 0.119469,0.1193 0.119141,0.11897 0.12017,0.12 0.126893,0.1193 0.126546,0.11898 0.127638,0.12 0.129539,-0.12126 0.129184,-0.12092 0.1303,-0.12197 0.122114,-0.12126 0.12178,-0.12092 0.122832,-0.12197 0.196703,0 0.196163,0 0.197858,0 0.18901,0.006 0.188491,0.006 0.19012,0.006 0.07174,0.1534 -0.05971,0.13954 -0.166827,0.006 -0.166371,0.006 -0.167807,0.006 -0.177215,0 -0.176729,0 -0.178255,0 -0.108435,0.10855 -0.108571,0.1087 -0.108671,0.10879 -0.108475,0.10859 -0.114362,0.10851 -0.114506,0.10865 -0.114611,0.10875 -0.114404,0.10855 -0.114799,-0.10855 -0.114943,-0.1087 -0.115049,-0.10879 -0.114841,-0.10859 4.8e-5,5.4e-4"
       style="fill:#b0b0b0"
       sodipodi:nodetypes="ccscscccccscscccccssscsccccccccccccccccsscssscscccccscccccccscscsccccscccccccccccsccccccccccccccccccscccccsccccccsccccccccccccccccccccccccccsccsccccscccccccscscscccccccs" />
    <g
       id="g4147"
       style="font-style:normal;font-weight:normal;font-size:4.01147556px;line-height:125%;font-family:sans-serif;letter-spacing:0px;word-spacing:0px;fill:#000000;fill-opacity:1;stroke:none;stroke-width:1px;stroke-linecap:butt;stroke-linejoin:miter;stroke-opacity:1">
      <path
         id="path4149"
         style="font-style:normal;font-variant:normal;font-weight:normal;font-stretch:normal;font-size:4.01147556px;line-height:125%;font-family:'Share Tech Mono';-inkscape-font-specification:'Share Tech Mono, Normal';text-align:start;writing-mode:lr-tb;text-anchor:start"
         d="m -26.200353,495.80295 q -0.348999,0 -0.537538,-0.16848 -0.184528,-0.1725 -0.184528,-0.51347 l 0,-1.44413 q 0,-0.34098 0.184528,-0.50946 0.188539,-0.17249 0.537538,-0.17249 l 0.565618,0 0,0.30487 -0.605733,0 q -0.148425,0 -0.240689,0.0883 -0.09226,0.0883 -0.09226,0.21261 l 0,1.59657 q 0,0.12435 0.09226,0.2126 0.09226,0.0883 0.240689,0.0883 l 0.393125,0 0,-0.87049 -0.348999,0 0,-0.30087 0.681951,0 0,1.47623 -0.685962,0 z" />
      <path
         id="path4151"
         style="font-style:normal;font-variant:normal;font-weight:normal;font-stretch:normal;font-size:4.01147556px;line-height:125%;font-family:'Share Tech Mono';-inkscape-font-specification:'Share Tech Mono, Normal';text-align:start;writing-mode:lr-tb;text-anchor:start"
         d="m -24.443076,495.50209 0,-1.40402 -0.292838,0 0,-0.30086 0.613756,0 0,0.10831 q 0.132378,-0.10831 0.320918,-0.10831 l 0.413182,0 0,0.32092 -0.453297,0 q -0.128367,0 -0.192551,0.0842 -0.06418,0.0802 -0.06819,0.16447 l 0,1.13525 0.437251,0 0,0.30086 -1.071064,0 0,-0.30086 0.292838,0 z" />
      <path
         id="path4153"
         style="font-style:normal;font-variant:normal;font-weight:normal;font-stretch:normal;font-size:4.01147556px;line-height:125%;font-family:'Share Tech Mono';-inkscape-font-specification:'Share Tech Mono, Normal';text-align:start;writing-mode:lr-tb;text-anchor:start"
         d="m -21.30184,495.80295 q -0.05215,0 -0.116333,-0.0321 -0.06017,-0.0321 -0.104298,-0.0883 -0.09226,0.12035 -0.2447,0.12035 l -0.357022,0 q -0.304872,0 -0.445274,-0.12035 -0.13639,-0.12435 -0.13639,-0.4212 l 0,-0.0802 q 0,-0.62178 0.585676,-0.62178 l 0.497423,0 0,-0.20057 q 0,-0.12436 -0.07622,-0.19255 -0.07622,-0.0682 -0.224643,-0.0682 l -0.621779,0 0,-0.30086 0.581664,0 q 0.348999,0 0.513469,0.15244 0.168482,0.15243 0.168482,0.4894 l 0,0.96275 q 0,0.0602 0.04413,0.0923 0.04814,0.0281 0.156448,0.0281 l 0,0.28081 -0.220631,0 z m -0.505446,-0.30086 q 0.120344,0 0.152436,-0.0562 0.03209,-0.0562 0.03209,-0.14442 l 0,-0.44126 -0.501435,0 q -0.104298,0 -0.172493,0.0682 -0.06819,0.0682 -0.06819,0.17249 l 0,0.20057 q 0,0.1043 0.04814,0.15244 0.04814,0.0481 0.152436,0.0481 l 0.357022,0 z" />
      <path
         id="path4155"
         style="font-style:normal;font-variant:normal;font-weight:normal;font-stretch:normal;font-size:4.01147556px;line-height:125%;font-family:'Share Tech Mono';-inkscape-font-specification:'Share Tech Mono, Normal';text-align:start;writing-mode:lr-tb;text-anchor:start"
         d="m -20.142273,493.79721 0,0.0963 q 0.124356,-0.0963 0.320918,-0.0963 l 0.184528,0 q 0.324929,0 0.481377,0.15244 0.160459,0.15243 0.160459,0.4894 l 0,1.3639 -0.340976,0 0,-1.44413 q 0,-0.12035 -0.07221,-0.18854 -0.06819,-0.0722 -0.188539,-0.0722 l -0.264758,0 q -0.132379,0 -0.196562,0.0722 -0.06418,0.0682 -0.06418,0.14842 l 0,1.48425 -0.340975,0 0,-2.00574 0.320918,0 z" />
      <path
         id="path4157"
         style="font-style:normal;font-variant:normal;font-weight:normal;font-stretch:normal;font-size:4.01147556px;line-height:125%;font-family:'Share Tech Mono';-inkscape-font-specification:'Share Tech Mono, Normal';text-align:start;writing-mode:lr-tb;text-anchor:start"
         d="m -16.976968,495.80295 q -0.05215,0 -0.116333,-0.0321 -0.06017,-0.0321 -0.104298,-0.0883 -0.09226,0.12035 -0.2447,0.12035 l -0.357022,0 q -0.304872,0 -0.445274,-0.12035 -0.13639,-0.12435 -0.13639,-0.4212 l 0,-0.0802 q 0,-0.62178 0.585676,-0.62178 l 0.497423,0 0,-0.20057 q 0,-0.12436 -0.07622,-0.19255 -0.07622,-0.0682 -0.224643,-0.0682 l -0.621779,0 0,-0.30086 0.581664,0 q 0.348999,0 0.513469,0.15244 0.168482,0.15243 0.168482,0.4894 l 0,0.96275 q 0,0.0602 0.04413,0.0923 0.04814,0.0281 0.156448,0.0281 l 0,0.28081 -0.220631,0 z m -0.505446,-0.30086 q 0.120344,0 0.152436,-0.0562 0.03209,-0.0562 0.03209,-0.14442 l 0,-0.44126 -0.501435,0 q -0.104298,0 -0.172493,0.0682 -0.0682,0.0682 -0.0682,0.17249 l 0,0.20057 q 0,0.1043 0.04814,0.15244 0.04814,0.0481 0.152436,0.0481 l 0.357022,0 z" />
      <path
         id="path4159"
         style="font-style:normal;font-variant:normal;font-weight:normal;font-stretch:normal;font-size:4.01147556px;line-height:125%;font-family:'Share Tech Mono';-inkscape-font-specification:'Share Tech Mono, Normal';text-align:start;writing-mode:lr-tb;text-anchor:start"
         d="m -14.662097,495.16913 q 0,0.34499 -0.160459,0.4894 -0.156447,0.14442 -0.521492,0.14442 l -0.802295,0 0,-2.80803 0.754158,0 q 0.357021,0 0.521492,0.14441 0.168482,0.14441 0.168482,0.48138 l 0,0.22865 q 0,0.30888 -0.220632,0.46533 0.260746,0.14441 0.260746,0.49341 l 0,0.36103 z m -0.389113,-1.58453 q 0,-0.15243 -0.07221,-0.22063 -0.06819,-0.0682 -0.220632,-0.0682 l -0.453296,0 0,0.88653 0.453296,0 q 0.124356,0 0.208597,-0.0802 0.08424,-0.0802 0.08424,-0.21261 l 0,-0.30487 z m 0.04012,1.1874 q 0,-0.13238 -0.08023,-0.2086 -0.08023,-0.0802 -0.212608,-0.0802 l -0.493411,0 0,1.01892 0.4894,0 q 0.152436,0 0.224642,-0.0682 0.07221,-0.0722 0.07221,-0.22464 l 0,-0.43725 z" />
      <path
         id="path4161"
         style="font-style:normal;font-variant:normal;font-weight:normal;font-stretch:normal;font-size:4.01147556px;line-height:125%;font-family:'Share Tech Mono';-inkscape-font-specification:'Share Tech Mono, Normal';text-align:start;writing-mode:lr-tb;text-anchor:start"
         d="m -12.495649,495.16111 q 0,0.33697 -0.168482,0.4894 -0.16447,0.15244 -0.513469,0.15244 l -0.132378,0 q -0.348999,0 -0.517481,-0.15244 -0.16447,-0.15243 -0.16447,-0.4894 l 0,-0.72206 q 0,-0.33697 0.16447,-0.4894 0.168482,-0.15244 0.517481,-0.15244 l 0.132378,0 q 0.348999,0 0.513469,0.15244 0.168482,0.15243 0.168482,0.4894 l 0,0.72206 z m -0.340975,-0.80229 q 0,-0.12436 -0.07622,-0.19255 -0.07622,-0.0682 -0.224643,-0.0682 l -0.212608,0 q -0.148425,0 -0.224643,0.0682 -0.07622,0.0682 -0.07622,0.19255 l 0,0.88252 q 0,0.12436 0.07622,0.19255 0.07622,0.0682 0.224643,0.0682 l 0.212608,0 q 0.148425,0 0.224643,-0.0682 0.07622,-0.0682 0.07622,-0.19255 l 0,-0.88252 z" />
      <path
         id="path4163"
         style="font-style:normal;font-variant:normal;font-weight:normal;font-stretch:normal;font-size:4.01147556px;line-height:125%;font-family:'Share Tech Mono';-inkscape-font-specification:'Share Tech Mono, Normal';text-align:start;writing-mode:lr-tb;text-anchor:start"
         d="m -10.930922,495.80295 q -0.204585,0 -0.312895,-0.13238 -0.10831,-0.13238 -0.10831,-0.349 l 0,-1.2235 -0.38109,0 0,-0.30086 0.38109,0 0,-0.48138 0.340975,0 0,0.48138 0.585676,0 0,0.30086 -0.585676,0 0,1.24356 q 0,0.0883 0.04413,0.12435 0.04413,0.0361 0.13639,0.0361 l 0.405159,0 0,0.30086 -0.505446,0 z" />
    </g>
  </g>
</svg>
